<?xml version="1.0" encoding="UTF-8"?>
<svg width="90px" height="90px" viewBox="0 0 90 90" version="1.1" xmlns="http://www.w3.org/2000/svg" xmlns:xlink="http://www.w3.org/1999/xlink">
    <!-- Generator: Sketch 59.1 (86144) - https://sketch.com -->
    <title>back-top</title>
    <desc>Created with Sketch.</desc>
    <g id="back-top" stroke="none" stroke-width="1" fill="none" fill-rule="evenodd">
        <g id="编组-2">
            <rect id="矩形" x="0" y="0" width="90" height="90"></rect>
            <g id="编组" transform="translate(8.000000, 8.000000)">
                <path d="M33.9054685,12.0513265 C33.9040688,12.032129 33.9040688,12.0141314 33.902669,11.994934 C33.7276983,9.21130516 31.0401487,7 27.7479004,7 C26.353734,7 25.0673495,7.39714705 24.0343226,8.06665778 C22.546372,9.03132916 21.5833333,10.5611252 21.5833333,12.2840955 C21.5833333,12.4340755 21.5931317,12.5816558 21.6071293,12.7280363 C21.6085291,12.7388348 21.6085291,12.7496334 21.6099289,12.7604319 C21.6239265,12.8900147 21.6421235,13.0171977 21.6659195,13.1443807 C21.6729183,13.1791761 21.6813169,13.2139715 21.6883157,13.2487668 C21.7079125,13.3411545 21.7303087,13.4311425 21.7555045,13.5223304 C21.7751012,13.5931209 21.7974974,13.6639115 21.8212935,13.734702 C21.8394904,13.7910945 21.8590871,13.847487 21.8800836,13.9026796 C22.0970473,14.4870017 22.4259921,15.0281296 22.8515208,15.5044661 L22.9117107,15.5584589 C23.2014622,15.8704173 23.5276075,16.1535795 23.8901468,16.4031462 L23.9699334,16.472737 L33.83688,25 L33.8956702,12.7304359 C33.8998695,12.6752433 33.8998695,12.617651 33.9040688,12.5612585 C33.9040688,12.5564591 33.9040688,12.5516598 33.9054685,12.5456606 C33.9096678,12.4640715 33.9166667,12.3824823 33.9166667,12.3008932 C33.9166667,12.2169044 33.9096678,12.1341155 33.9054685,12.0513265" id="Fill-2" fill="#FE336E"></path>
                <path d="M65.0501827,3.64701575 L65.1747618,3.53151645 C65.5471739,3.15614375 65.7777778,2.65522833 65.7777778,2.10409583 C65.7777778,1.01187425 64.8845189,0.115499294 63.7407766,0.0100434169 C63.6665592,0.00376628132 63.5910165,0 63.5141486,0 C63.4386059,0 63.3630633,0.00376628132 63.2888459,0.0100434169 L50.7408124,0.0100434169 C46.5581345,0.0100434169 43.1666667,3.14735576 43.1666667,7.01783753 L43.1666667,24 L65.0501827,3.64701575 Z" id="Fill-4" fill="#5808B6"></path>
                <path d="M31.133516,53.6470157 L31.2580951,53.5315165 C31.6305072,53.1561437 31.8611111,52.6552283 31.8611111,52.1040958 C31.8611111,51.0118742 30.9678523,50.1154993 29.8241099,50.0100434 C29.7498925,50.0037663 29.6743499,50 29.5974819,50 C29.5219393,50 29.4463966,50.0037663 29.3721792,50.0100434 L16.8241457,50.0100434 C12.6414679,50.0100434 9.25,53.1473558 9.25,57.0178375 L9.25,74 L31.133516,53.6470157 Z" id="Fill-4备份" fill="#5808B6" transform="translate(20.555556, 62.000000) rotate(-180.000000) translate(-20.555556, -62.000000) "></path>
                <path d="M64.6972478,32.9891033 C64.7169785,32.9891033 64.735476,32.9877412 64.7552067,32.9863791 C67.6161586,32.816118 69.8888889,30.2009081 69.8888889,26.9986379 C69.8888889,25.6406356 69.48071,24.3888763 68.7926017,23.3836549 C67.8011339,21.9357548 66.2288436,21 64.458013,21 C64.3051001,21 64.1521871,21.0081725 64.0017405,21.0217934 C63.990642,21.0231555 63.9795435,21.0231555 63.9684449,21.0245176 C63.8352627,21.0381385 63.7045468,21.0572077 63.5738309,21.0803632 C63.538069,21.0858116 63.5023071,21.0939841 63.4665452,21.1007946 C63.3728244,21.1198638 63.2791035,21.1430193 63.1853827,21.1661748 C63.1126257,21.1866061 63.0398688,21.2083995 62.9671118,21.230193 C62.9091529,21.2479001 62.8511939,21.2683314 62.7944681,21.2874007 C62.1939149,21.4985244 61.6377557,21.8186152 61.1481876,22.2326901 L61.092695,22.292622 C60.7720711,22.5732123 60.4810433,22.891941 60.2245441,23.2433598 L60.1542535,23.3209989 L51.3888889,32.922361 L63.9992742,32.9795687 C64.0559999,32.985017 64.115192,32.985017 64.173151,32.9877412 C64.1780837,32.9877412 64.1842495,32.9891033 64.1891822,32.9891033 C64.2730377,32.9931896 64.3568932,33 64.4419818,33 C64.5283036,33 64.6121591,32.9945516 64.6972478,32.9891033" id="Fill-10" fill="#FE336E"></path>
                <path d="M18.4472478,53.9891033 C18.4669785,53.9891033 18.485476,53.9877412 18.5052067,53.9863791 C21.3661586,53.816118 23.6388889,51.2009081 23.6388889,47.9986379 C23.6388889,46.6406356 23.23071,45.3888763 22.5426017,44.3836549 C21.5511339,42.9357548 19.9788436,42 18.208013,42 C18.0551001,42 17.9021871,42.0081725 17.7517405,42.0217934 C17.740642,42.0231555 17.7295435,42.0231555 17.7184449,42.0245176 C17.5852627,42.0381385 17.4545468,42.0572077 17.3238309,42.0803632 C17.288069,42.0858116 17.2523071,42.0939841 17.2165452,42.1007946 C17.1228244,42.1198638 17.0291035,42.1430193 16.9353827,42.1661748 C16.8626257,42.1866061 16.7898688,42.2083995 16.7171118,42.230193 C16.6591529,42.2479001 16.6011939,42.2683314 16.5444681,42.2874007 C15.9439149,42.4985244 15.3877557,42.8186152 14.8981876,43.2326901 L14.842695,43.292622 C14.5220711,43.5732123 14.2310433,43.891941 13.9745441,44.2433598 L13.9042535,44.3209989 L5.13888889,53.922361 L17.7492742,53.9795687 C17.8059999,53.985017 17.865192,53.985017 17.923151,53.9877412 C17.9280837,53.9877412 17.9342495,53.9891033 17.9391822,53.9891033 C18.0230377,53.9931896 18.1068932,54 18.1919818,54 C18.2783036,54 18.3621591,53.9945516 18.4472478,53.9891033" id="Fill-10备份" fill="#FE336E" transform="translate(14.388889, 48.000000) rotate(-180.000000) translate(-14.388889, -48.000000) "></path>
                <path d="M52.2542291,65.1554673 C52.2734265,65.1554673 52.2914241,65.1540673 52.3106215,65.1526674 C55.0942504,64.9776769 57.3055556,62.2898222 57.3055556,58.9986001 C57.3055556,57.6028755 56.9084085,56.3163451 56.2388978,55.2832009 C55.2742264,53.7950813 53.7444304,52.8333333 52.0214601,52.8333333 C51.8726799,52.8333333 51.7238998,52.8417329 51.5775193,52.8557321 C51.5667207,52.857132 51.5559222,52.857132 51.5451236,52.858532 C51.4155409,52.8725312 51.2883578,52.8921302 51.1611748,52.9159289 C51.1263794,52.9215286 51.0915841,52.9299281 51.0567887,52.9369277 C50.9656009,52.9565267 50.874413,52.9803254 50.7832252,53.0041241 C50.7124346,53.025123 50.6416441,53.0475218 50.5708535,53.0699205 C50.514461,53.0881196 50.4580686,53.1091184 50.4028759,53.1287174 C49.8185538,53.3457056 49.277426,53.6746879 48.8010895,54.1002649 L48.7470967,54.1618615 C48.4351383,54.4502459 48.151976,54.7778282 47.9024093,55.1390087 L47.8340184,55.2188044 L39.3055556,65.086871 L51.5751196,65.1456678 C51.6303123,65.1512675 51.6879046,65.1512675 51.7442971,65.1540673 C51.7490964,65.1540673 51.7550956,65.1554673 51.759895,65.1554673 C51.8414841,65.159667 51.9230732,65.1666667 52.0058622,65.1666667 C52.089851,65.1666667 52.1714401,65.161067 52.2542291,65.1554673" id="Fill-10备份-2" fill="#FE336E" transform="translate(48.305556, 59.000000) rotate(-270.000000) translate(-48.305556, -59.000000) "></path>
                <path d="M70.5632121,61.356524 L70.6717555,61.466106 C71.0264149,61.7974006 71.4971904,62 72.0171892,62 C73.0458275,62 73.8901944,61.2099898 73.9899029,60.1982671 C73.9962136,60.1332824 74,60.0657492 74,59.9994903 C74,59.930683 73.9962136,59.8644241 73.9899029,59.7981651 L73.9899029,48.6985219 C73.9899029,44.9994903 71.0352498,42 67.3876857,42 L51.3888889,42 L70.5632121,61.356524 Z" id="Fill-12" fill="#5808B6"></path>
                <path d="M3.74858336,12.6447376 L3.62950028,12.5348934 C3.24438053,12.2041669 2.73004297,12 2.16249807,12 C1.04134354,12 0.119083081,12.7915945 0.0101347303,13.8028774 C0.00253368257,13.8685452 0,13.9354068 0,14.0022685 C0,14.0703242 0.00253368257,14.1371858 0.0101347303,14.2028536 L0.0101347303,25.3006985 C0.0101347303,29.0007761 3.23551264,32 7.21212744,32 L24.6666667,32 L3.74858336,12.6447376 Z" id="Fill-20" fill="#5808B6"></path>
            </g>
        </g>
    </g>
</svg>