<?xml version="1.0" encoding="UTF-8"?>
<svg width="40px" height="40px" viewBox="0 0 40 40" version="1.1" xmlns="http://www.w3.org/2000/svg" xmlns:xlink="http://www.w3.org/1999/xlink">
    <!-- Generator: Sketch 59.1 (86144) - https://sketch.com -->
    <title>email-white</title>
    <desc>Created with Sketch.</desc>
    <g id="email-white" stroke="none" stroke-width="1" fill="none" fill-rule="evenodd">
        <g id="Background" fill="#FFFFFF" fill-rule="nonzero">
            <path d="M38.3908683,12.2039805 C37.3846244,9.82458537 35.9442732,7.68776585 34.1096976,5.85299512 C32.275122,4.01818537 30.1384976,2.57752195 27.7591805,1.57100488 C25.2953756,0.528702439 22.6786341,0 19.9804878,0 C17.2837463,0 14.667122,0.528390244 12.2033561,1.57045854 C9.82407805,2.57678049 7.68741463,4.01724878 5.85272195,5.85182439 C4.01802927,7.6864 2.5774439,9.82298537 1.57096585,12.2021854 C0.528702439,14.6659122 -3.45833635e-08,17.2825366 -3.45833635e-08,19.9793171 C-3.45833635e-08,22.6762537 0.528117073,25.2930732 1.57010732,27.7570341 C2.57635122,30.1364683 4.01678049,32.2732488 5.8513561,34.1079805 C7.68593171,35.9428293 9.8225561,37.3834927 12.2018732,38.3900098 C14.6657171,39.4322732 17.2824585,39.9610146 19.9803317,39.9610146 L19.9806829,39.9610146 C22.6774244,39.9610146 25.2939707,39.4326244 27.7577756,38.3905561 C30.1370537,37.3842341 32.273678,35.9437659 34.1083317,34.1092293 C35.9429854,32.2746927 37.3836098,30.1381073 38.3900878,27.7588683 C39.4323512,25.2951024 39.9610147,22.678439 39.9610147,19.9816976 C39.9610147,17.284722 39.4328585,14.6679415 38.3908683,12.2039805 Z M19.9806439,38.1006049 L19.9794732,38.1006049 C15.1394341,38.1006049 10.5891512,36.2152195 7.16686829,32.7925463 C3.74466341,29.3699122 1.86037073,24.8194732 1.86037073,19.9794341 C1.8609561,9.98856585 9.98961951,1.86040976 19.9815805,1.86040976 C24.8216195,1.86040976 29.3718634,3.7457561 32.7940683,7.16839024 C36.2163122,10.5910634 38.1005659,15.1415024 38.1005659,19.9815415 C38.1000195,29.9724098 29.9714341,38.1006049 19.9806439,38.1006049 Z" id="形状"></path>
        </g>
        <g id="Mail" transform="translate(8.800000, 12.244898)" fill="#FFFFFF" fill-rule="nonzero">
            <polygon id="路径" points="14.1991429 8.05173955 11.197581 10.5632264 8.19601905 8.05173955 5.7507619 10.0977648 0.303866667 14.6553936 11.197581 14.6553936 22.0912952 14.6553936 16.6444 10.0977648"></polygon>
            <polygon id="路径" points="7.12857143 7.28921283 3.56460952 3.76011662 0.000685714286 0.231059281 0.000685714286 7.2892517 0.000685714286 14.3473275 3.56460952 10.8181924"></polygon>
            <polygon id="路径" points="11.1975429 9.72244898 16.7271048 4.86892128 22.2565905 0.015393586 11.1975429 0.015393586 0.138571429 0.015393586 5.66805714 4.86892128"></polygon>
            <polygon id="路径" points="18.8305905 3.76015549 15.2665905 7.28921283 18.8305905 10.8182702 22.3945143 14.3473275 22.3945143 7.28921283 22.3945143 0.231059281"></polygon>
        </g>
    </g>
</svg>