<?xml version="1.0" encoding="UTF-8"?>
<svg width="72px" height="72px" viewBox="0 0 72 72" version="1.1" xmlns="http://www.w3.org/2000/svg" xmlns:xlink="http://www.w3.org/1999/xlink">
    <!-- Generator: Sketch 59.1 (86144) - https://sketch.com -->
    <title>Favor_white</title>
    <desc>Created with Sketch.</desc>
    <g id="Favor_white" stroke="none" stroke-width="1" fill="none" fill-rule="evenodd">
        <rect id="矩形" fill="#FFFFFF" x="0" y="0" width="72" height="72" rx="36"></rect>
        <path d="M34.9936443,21.6481802 C34.9928498,21.6343154 34.9928498,21.6213172 34.9920554,21.6074523 C34.8927477,19.5970537 33.3673817,18 31.4988083,18 C30.7075247,18 29.9774146,18.2868284 29.391102,18.770364 C28.5465895,19.4670711 28,20.5719237 28,21.8162912 C28,21.9246101 28.0055612,22.0311958 28.0135058,22.1369151 C28.0143003,22.144714 28.0143003,22.152513 28.0150948,22.160312 C28.0230394,22.2538995 28.0333674,22.3457539 28.0468732,22.4376083 C28.0508455,22.4627383 28.0556123,22.4878683 28.0595846,22.5129983 C28.0707071,22.5797227 28.0834185,22.644714 28.0977188,22.7105719 C28.1088412,22.7616984 28.1215526,22.812825 28.1350584,22.8639515 C28.1453864,22.9046794 28.1565089,22.9454073 28.1684258,22.9852686 C28.2915674,23.407279 28.4782658,23.7980936 28.7197821,24.1421144 L28.7539439,24.1811092 C28.9183975,24.4064125 29.103507,24.6109185 29.3092725,24.7911612 L29.3545568,24.8414211 L34.9547157,31 L34.9880831,22.1386482 C34.9904665,22.0987868 34.9904665,22.0571924 34.9928498,22.0164645 C34.9928498,22.0129983 34.9928498,22.0095321 34.9936443,22.0051993 C34.9960277,21.9462738 35,21.8873484 35,21.8284229 C35,21.7677643 34.9960277,21.7079723 34.9936443,21.6481802" id="Fill-2" fill="#FF565E"></path>
        <path d="M52.5494989,16.5833028 L52.6266338,16.5014908 C52.8572182,16.2356018 53,15.8807867 53,15.4904012 C53,14.7167443 52.4469257,14.081812 51.7387609,14.0071141 C51.6928082,14.0026678 51.6460348,14 51.5984409,14 C51.5516675,14 51.5048942,14.0026678 51.4589414,14.0071141 L43.689643,14.0071141 C41.0998769,14.0071141 39,16.229377 39,18.9709682 L39,31 L52.5494989,16.5833028 Z" id="Fill-4" fill="#6742C6"></path>
        <path d="M50.3518198,32.9927355 C50.3656846,32.9927355 50.3786828,32.9918275 50.3925477,32.9909194 C52.4029463,32.877412 54,31.1339387 54,28.9990919 C54,28.0937571 53.7131716,27.2592509 53.229636,26.5891033 C52.5329289,25.6238365 51.4280763,25 50.1837088,25 C50.0762565,25 49.9688042,25.0054484 49.8630849,25.0145289 C49.855286,25.015437 49.847487,25.015437 49.839688,25.0163451 C49.7461005,25.0254257 49.6542461,25.0381385 49.5623917,25.0535755 C49.5372617,25.0572077 49.5121317,25.0626561 49.4870017,25.0671964 C49.4211438,25.0799092 49.355286,25.0953462 49.2894281,25.1107832 C49.2383016,25.1244041 49.187175,25.138933 49.1360485,25.153462 C49.0953206,25.1652667 49.0545927,25.1788876 49.0147314,25.1916005 C48.592721,25.3323496 48.2019064,25.5457435 47.8578856,25.8217934 L47.8188908,25.861748 C47.5935875,26.0488082 47.3890815,26.261294 47.2088388,26.4955732 L47.1594454,26.5473326 L41,32.9482406 L49.8613518,32.9863791 C49.9012132,32.9900114 49.9428076,32.9900114 49.9835355,32.9918275 C49.9870017,32.9918275 49.9913345,32.9927355 49.9948007,32.9927355 C50.0537262,32.9954597 50.1126516,33 50.1724437,33 C50.2331023,33 50.2920277,32.9963678 50.3518198,32.9927355" id="Fill-10" fill="#FF565E"></path>
        <path d="M53.720067,49.5495668 L53.7920737,49.6262742 C54.0273514,49.8581804 54.3396595,50 54.6846218,50 C55.3670109,50 55.927156,49.4469929 55.9933017,48.738787 C55.9974881,48.6932977 56,48.6460245 56,48.5996432 C56,48.5514781 55.9974881,48.5050968 55.9933017,48.4587156 L55.9933017,40.6889653 C55.9933017,38.0996432 54.0332124,36 51.6134524,36 L41,36 L53.720067,49.5495668 Z" id="Fill-12" fill="#FF565E"></path>
        <path d="M33.2218499,36 C30.9926814,36.1473556 29.2055374,38.0356257 29.0333304,40.4091987 C29.024601,40.5327304 29.0182524,40.6580268 29.0182524,40.7842056 C29.0182524,40.9103844 29.024601,41.0356808 29.0333304,41.1592125 L29.0333304,53.8935642 L29.0333304,58.5321789 L29.0039679,66.3473226 C29.0031743,66.3561463 29.0007936,66.3640876 29,66.3729113 L29,66.6685049 C29.0007936,66.6746815 29.0023807,66.6799757 29.0023807,66.6852699 C29.0777709,67.4246953 29.6523234,68 30.3522617,68 C30.6911207,68 31.0006172,67.8641151 31.2386915,67.6399934 L31.372013,67.4952848 L36.5310819,61.909888 L36.8826382,61.5295869 C37.5246451,60.7548668 37.9349264,59.7577897 38,58.6592401 L38,58.0433464 L38,53.8935642 L38,36 L33.7813244,36 L33.2218499,36 Z" id="Fill-14" fill="#6742C6"></path>
        <path d="M18.5834831,18.4835532 L18.5014124,18.4011701 C18.235992,18.1531252 17.8815161,18 17.4903703,18 C16.7176827,18 16.0820708,18.5936959 16.0069847,19.3521581 C16.0017462,19.4014089 16,19.4515551 16,19.5017014 C16,19.5527431 16.0017462,19.6028894 16.0069847,19.6521402 L16.0069847,27.9755238 C16.0069847,30.7505821 18.2298803,33 20.9705203,33 L33,33 L18.5834831,18.4835532 Z" id="Fill-20" fill="#6742C6"></path>
    </g>
</svg>