<?xml version="1.0" encoding="UTF-8"?>
<svg width="40px" height="40px" viewBox="0 0 40 40" version="1.1" xmlns="http://www.w3.org/2000/svg" xmlns:xlink="http://www.w3.org/1999/xlink">
    <!-- Generator: Sketch 59.1 (86144) - https://sketch.com -->
    <title>linkedin-white</title>
    <desc>Created with Sketch.</desc>
    <g id="linkedin-white" stroke="none" stroke-width="1" fill="none" fill-rule="evenodd">
        <g id="iconfinder_linkedin-01-01_3066989" fill="#FFFFFF" fill-rule="nonzero">
            <g id="Background">
                <path d="M38.3908683,12.2039805 C37.3846244,9.82458537 35.9442732,7.68776585 34.1096976,5.85299512 C32.275122,4.01818537 30.1384976,2.57752195 27.7591805,1.57100488 C25.2953756,0.528702439 22.6786341,0 19.9804878,0 C17.2837463,0 14.667122,0.528390244 12.2033561,1.57045854 C9.82407805,2.57678049 7.68741463,4.01724878 5.85272195,5.85182439 C4.01802927,7.6864 2.5774439,9.82298537 1.57096585,12.2021854 C0.528702439,14.6659122 -3.45833635e-08,17.2825366 -3.45833635e-08,19.9793171 C-3.45833635e-08,22.6762537 0.528117073,25.2930732 1.57010732,27.7570341 C2.57635122,30.1364683 4.01678049,32.2732488 5.8513561,34.1079805 C7.68593171,35.9428293 9.8225561,37.3834927 12.2018732,38.3900098 C14.6657171,39.4322732 17.2824585,39.9610146 19.9803317,39.9610146 C22.6774244,39.9610146 25.2939707,39.4326244 27.7577756,38.3905561 C30.1370537,37.3842341 32.273678,35.9437659 34.1083317,34.1092293 C35.9429854,32.2746927 37.3836098,30.1381073 38.3900878,27.7588683 C39.4323512,25.2951024 39.9610147,22.678439 39.9610147,19.9816976 C39.9610147,17.284722 39.4328585,14.6679415 38.3908683,12.2039805 Z M19.9806439,38.1006049 L19.9794732,38.1006049 C15.1394341,38.1006049 10.5891512,36.2152195 7.16686829,32.7925463 C3.74466341,29.3699122 1.86037073,24.8194732 1.86037073,19.9794341 C1.8609561,9.98856585 9.98961951,1.86040976 19.9815805,1.86040976 C24.8216195,1.86040976 29.3718634,3.7457561 32.7940683,7.16839024 C36.2163122,10.5910634 38.1005659,15.1415024 38.1005659,19.9815415 C38.1000195,29.9724098 29.9714341,38.1006049 19.9806439,38.1006049 Z" id="形状"></path>
            </g>
            <g id="Linkedin" transform="translate(10.612245, 8.979592)">
                <polygon id="路径" points="0.0270241653 19.58078 4.20253266 19.58078 4.19746563 5.13166458 0.0219964136 5.13166458"></polygon>
                <path d="M18.6035454,8.99723096 C18.5013013,8.42216205 18.3354641,7.85605496 18.0814448,7.32785128 C17.9347366,7.02272297 17.7499274,6.73435442 17.5308274,6.47450071 C17.2751584,6.17138978 16.9350389,5.89237098 16.5895773,5.69373692 C16.2936077,5.52354011 15.9561592,5.36905557 15.6258987,5.27652778 C15.4300914,5.22714084 15.2289813,5.19319458 15.024886,5.17049909 C14.4123252,5.10241261 13.7736829,5.13538897 13.1599436,5.18209901 C12.9836974,5.20238917 12.8087081,5.22694686 12.6352899,5.25635401 C12.461911,5.28576116 12.2901033,5.32005658 12.120456,5.35858072 C11.8211476,5.44971186 11.5607651,5.59341119 11.3382478,5.78191958 C11.1157305,5.97046676 10.9310785,6.20386179 10.7827205,6.47403516 C10.6976023,6.62910164 10.6239143,6.79270317 10.5758757,6.96293878 C10.5734011,6.97190059 10.5300367,7.17321156 10.5389531,7.17321156 L10.4739851,7.17321156 L10.4688788,5.13169977 L6.29498079,5.13169977 L6.30004782,19.5840388 L10.4463325,19.5840388 C10.4463325,19.5840388 10.4463325,11.8337022 10.4463325,10.7737256 C10.4463325,10.2811364 10.7666946,9.87071651 11.177674,9.62451889 C11.5762019,9.38580885 12.0689215,9.36443241 12.5220476,9.33545201 C12.7288139,9.32222267 12.944261,9.32885674 13.1502024,9.34984522 C13.5078012,9.38635199 13.8681889,9.49796727 14.1355239,9.744902 C14.5818547,10.1572617 14.6510648,10.7861014 14.6510648,11.3557389 C14.6510648,11.8159725 14.6510648,12.2762449 14.6510648,12.7365173 C14.6510648,13.4317753 14.6510648,14.1269945 14.6510648,14.8222138 C14.6510648,15.5661216 14.6510648,16.3099519 14.6510648,17.0537822 C14.6510648,17.6575211 14.6510648,18.2612601 14.6510648,18.8650378 C14.6510648,19.1047565 14.6510648,19.3443589 14.6510648,19.5840388 L18.7582273,19.5840388 C18.7582273,19.3446304 18.7582273,19.1052221 18.7582273,18.8658137 C18.7582273,18.2518715 18.7582273,17.6379293 18.7582273,17.0239095 C18.7582273,16.2679749 18.7582273,15.5118852 18.7582273,14.7559119 C18.7582273,13.5173587 18.7582273,12.2788054 18.7582273,11.0403298 C18.7582273,10.3591934 18.7229938,9.66940554 18.6035454,8.99723096 Z" id="路径"></path>
                <ellipse id="椭圆形" cx="2.11479805" cy="2.09155466" rx="2.09751516" ry="2.07169125"></ellipse>
            </g>
        </g>
    </g>
</svg>