<svg xmlns="http://www.w3.org/2000/svg" width="72" height="72" viewBox="0 0 72 72">
    <g fill="none" fill-rule="evenodd">
        <path d="M0 72h72V0H0z"/>
        <path fill="#FF565E" d="M34.582 13.474l-.002-.047c-.123-2.32-2.017-4.163-4.337-4.163-.982 0-1.889.33-2.616.889a4.419 4.419 0 0 0-1.71 3.885l.001.027c.01.108.023.214.04.32l.016.087a4.446 4.446 0 0 0 .82 1.88l.042.045c.204.26.434.496.689.704l.056.058 6.953 7.107.041-10.226c.003-.046.003-.094.006-.141l.001-.013c.003-.068.008-.136.008-.204 0-.07-.005-.14-.008-.208"/>
        <path fill="#33427C" d="M54.642 7.979l.093-.092c.277-.299.449-.698.449-1.137a1.679 1.679 0 0 0-1.853-1.668h-9.338c-3.113 0-5.637 2.499-5.637 5.582v13.527L54.642 7.979z"/>
        <path fill="#FF565E" d="M51.714 26.874l.047-.002c2.288-.125 4.106-2.045 4.106-4.396 0-.997-.327-1.916-.877-2.654a4.317 4.317 0 0 0-3.832-1.734l-.027.002c-.106.01-.21.024-.315.041-.029.004-.057.01-.086.015-.075.014-.15.031-.225.048l-.175.047-.138.042c-.48.155-.925.39-1.316.694l-.045.044c-.256.206-.489.44-.694.698l-.056.057-7.01 7.049 10.085.042c.045.004.093.004.14.006l.012.001c.067.003.134.008.202.008.07 0 .136-.004.204-.008M55.944 45.852l.085.086c.277.26.645.418 1.051.418a1.558 1.558 0 0 0 1.55-1.57 1.66 1.66 0 0 0-.008-.158v-8.71c0-2.904-2.31-5.258-5.16-5.258H40.96l14.984 15.191z"/>
        <path fill="#33427C" d="M32.088 30.66c-2.77.167-4.992 2.307-5.206 4.997a5.5 5.5 0 0 0-.019.425c0 .143.008.285.02.425v19.689l-.037 8.857-.005.03v.334c0 .007.003.013.003.02.093.837.807 1.49 1.677 1.49.422 0 .806-.155 1.102-.409l.166-.164 6.412-6.33.437-.43a5.34 5.34 0 0 0 1.388-3.254V30.66H32.088zM15.44 10.717l-.093-.092a1.683 1.683 0 0 0-2.818 1.397v9.295a5.61 5.61 0 0 0 5.608 5.61h13.589L15.44 10.718z"/>
    </g>
</svg>
