<?xml version="1.0" encoding="UTF-8"?>
<svg width="40px" height="40px" viewBox="0 0 40 40" version="1.1" xmlns="http://www.w3.org/2000/svg" xmlns:xlink="http://www.w3.org/1999/xlink">
    <!-- Generator: Sketch 59.1 (86144) - https://sketch.com -->
    <title>reseum-white</title>
    <desc>Created with Sketch.</desc>
    <defs>
        <polygon id="path-1" points="0 0.0276374872 19.9943373 0.0276374872 19.9943373 4.65165383 0 4.65165383"></polygon>
        <polygon id="path-3" points="0 0.0252526961 19.9943373 0.0252526961 19.9943373 11.3824885 0 11.3824885"></polygon>
    </defs>
    <g id="reseum-white" stroke="none" stroke-width="1" fill="none" fill-rule="evenodd">
        <g id="编组-2">
            <g id="编组-6" fill="#FFFFFF" fill-rule="nonzero">
                <g id="iconfinder_mail-01-01_3066965备份">
                    <g id="Background">
                        <path d="M38.3908683,12.2039805 C37.3846244,9.82458537 35.9442732,7.68776585 34.1096976,5.85299512 C32.275122,4.01818537 30.1384976,2.57752195 27.7591805,1.57100488 C25.2953756,0.528702439 22.6786341,0 19.9804878,0 C17.2837463,0 14.667122,0.528390244 12.2033561,1.57045854 C9.82407805,2.57678049 7.68741463,4.01724878 5.85272195,5.85182439 C4.01802927,7.6864 2.5774439,9.82298537 1.57096585,12.2021854 C0.528702439,14.6659122 -3.45833635e-08,17.2825366 -3.45833635e-08,19.9793171 C-3.45833635e-08,22.6762537 0.528117073,25.2930732 1.57010732,27.7570341 C2.57635122,30.1364683 4.01678049,32.2732488 5.8513561,34.1079805 C7.68593171,35.9428293 9.8225561,37.3834927 12.2018732,38.3900098 C14.6657171,39.4322732 17.2824585,39.9610146 19.9803317,39.9610146 L19.9806829,39.9610146 C22.6774244,39.9610146 25.2939707,39.4326244 27.7577756,38.3905561 C30.1370537,37.3842341 32.273678,35.9437659 34.1083317,34.1092293 C35.9429854,32.2746927 37.3836098,30.1381073 38.3900878,27.7588683 C39.4323512,25.2951024 39.9610147,22.678439 39.9610147,19.9816976 C39.9610147,17.284722 39.4328585,14.6679415 38.3908683,12.2039805 Z M19.9806439,38.1006049 L19.9794732,38.1006049 C15.1394341,38.1006049 10.5891512,36.2152195 7.16686829,32.7925463 C3.74466341,29.3699122 1.86037073,24.8194732 1.86037073,19.9794341 C1.8609561,9.98856585 9.98961951,1.86040976 19.9815805,1.86040976 C24.8216195,1.86040976 29.3718634,3.7457561 32.7940683,7.16839024 C36.2163122,10.5910634 38.1005659,15.1415024 38.1005659,19.9815415 C38.1000195,29.9724098 29.9714341,38.1006049 19.9806439,38.1006049 Z" id="形状"></path>
                    </g>
                </g>
            </g>
            <g id="编组" transform="translate(10.400000, 11.428571)">
                <g>
                    <mask id="mask-2" fill="white">
                        <use xlink:href="#path-1"></use>
                    </mask>
                    <g id="Clip-2"></g>
                    <path d="M7.69278313,3.51206598 C7.35479116,3.51206598 7.08073494,3.24003688 7.08073494,2.90445591 C7.08073494,2.5689148 7.35479116,2.2968857 7.69278313,2.2968857 C8.03081526,2.2968857 8.30483133,2.5689148 8.30483133,2.90445591 C8.30483133,3.24003688 8.03081526,3.51206598 7.69278313,3.51206598 M5.37278313,3.51206598 C5.03479116,3.51206598 4.7607751,3.24003688 4.7607751,2.90445591 C4.7607751,2.5689148 5.03479116,2.2968857 5.37278313,2.2968857 C5.71081526,2.2968857 5.98487149,2.5689148 5.98487149,2.90445591 C5.98487149,3.24003688 5.71081526,3.51206598 5.37278313,3.51206598 M3.05286345,3.51206598 C2.71483133,3.51206598 2.44081526,3.24003688 2.44081526,2.90445591 C2.44081526,2.5689148 2.71483133,2.2968857 3.05286345,2.2968857 C3.39085542,2.2968857 3.66487149,2.5689148 3.66487149,2.90445591 C3.66487149,3.24003688 3.39085542,3.51206598 3.05286345,3.51206598 M19.6730643,0.0276374872 L0.321257028,0.0276374872 C0.143827309,0.0276374872 -2.81124498e-05,0.170449777 -2.81124498e-05,0.346592908 L-2.81124498e-05,4.65165383 L19.9943494,4.65165383 L19.9943494,0.346592908 C19.9943494,0.170449777 19.8505341,0.0276374872 19.6730643,0.0276374872" id="Fill-1" fill="#FFFFFF" mask="url(#mask-2)"></path>
                </g>
                <g transform="translate(0.000000, 5.510204)">
                    <mask id="mask-4" fill="white">
                        <use xlink:href="#path-3"></use>
                    </mask>
                    <g id="Clip-4"></g>
                    <path d="M5.88398394,5.72674509 C7.50675502,5.72674509 8.82229719,7.00799867 8.82229719,8.58852173 C8.82229719,8.7707589 8.8040241,8.94877163 8.77061044,9.12154294 L2.99735743,9.12154294 C2.96394378,8.94877163 2.94567068,8.7707589 2.94567068,8.58852173 C2.94567068,7.00799867 4.26121285,5.72674509 5.88398394,5.72674509 L5.88398394,5.72674509 Z M5.91759839,2.21640129 C6.90795984,2.21640129 7.71081124,2.99831175 7.71081124,3.96288964 C7.71081124,4.92746753 6.90795984,5.70945622 5.91759839,5.70945622 C4.92727711,5.70945622 4.1244257,4.92746753 4.1244257,3.96288964 C4.1244257,2.99831175 4.92727711,2.21640129 5.91759839,2.21640129 L5.91759839,2.21640129 Z M10.9400482,2.65484223 C10.9400482,2.32052563 11.2192851,2.04855847 11.5625382,2.04855847 L16.8039036,2.04855847 C17.1471566,2.04855847 17.4263936,2.32052563 17.4263936,2.65484223 L17.4263936,4.64877258 C17.4263936,4.98308917 17.1471566,5.25505633 16.8039036,5.25505633 L11.5625382,5.25505633 C11.2192851,5.25505633 10.9400482,4.98308917 10.9400482,4.64877258 L10.9400482,2.65484223 Z M17.1952289,6.87927094 C17.1952289,7.0088592 17.0873976,7.11396142 16.9542651,7.11396142 L11.4120964,7.11396142 C11.2790442,7.11396142 11.1711325,7.0088592 11.1711325,6.87927094 L11.1711325,6.56635029 C11.1711325,6.43672292 11.2790442,6.33165981 11.4120964,6.33165981 L16.9542651,6.33165981 C17.0873976,6.33165981 17.1952289,6.43672292 17.1952289,6.56635029 L17.1952289,6.87927094 Z M17.1952289,8.78042032 C17.1952289,8.9100477 17.0873976,9.0151108 16.9542651,9.0151108 L11.4120964,9.0151108 C11.2790442,9.0151108 11.1711325,8.9100477 11.1711325,8.78042032 L11.1711325,8.46749968 C11.1711325,8.33791141 11.2790442,8.23280919 11.4120964,8.23280919 L16.9542651,8.23280919 C17.0873976,8.23280919 17.1952289,8.33791141 17.1952289,8.46749968 L17.1952289,8.78042032 Z M-3.21285141e-05,11.0695913 C-3.21285141e-05,11.2424017 0.143823293,11.3825119 0.321253012,11.3825119 L19.6730602,11.3825119 C19.8505301,11.3825119 19.9943454,11.2424017 19.9943454,11.0695913 L19.9943454,0.0252526961 L-3.21285141e-05,0.0252526961 L-3.21285141e-05,11.0695913 Z" id="Fill-3" fill="#FFFFFF" mask="url(#mask-4)"></path>
                </g>
            </g>
        </g>
    </g>
</svg>