<svg xmlns="http://www.w3.org/2000/svg" width="15" height="27" viewBox="0 0 15 27">
    <path fill="#33427C" fill-rule="nonzero" d="M7.5 0C11.642 0 15 3.297 15 7.366v12.268C15 23.701 11.642 27 7.5 27 3.358 27 0 23.703 0 19.634V7.363C-.003 3.299 3.358 0 7.5 0zM1.001 19.634c0 3.518 2.913 6.38 6.499 6.38s6.496-2.861 6.496-6.38V7.363c0-3.518-2.912-6.38-6.499-6.38C3.911.983.998 3.848.998 7.363l.003 12.271zm2.72 1.061l3.567 3.5a.301.301 0 0 0 .424 0l3.564-3.5a.288.288 0 0 0 0-.415l-.71-.697a.301.301 0 0 0-.423 0l-2.437 2.392a.301.301 0 0 1-.423 0l-2.437-2.392a.301.301 0 0 0-.424 0l-.71.697a.295.295 0 0 0 .01.415z"/>
</svg>
